Coordinates
version=1
nRows=34
nColumns=19
inDegrees=yes

Units are S.I. units (second, meters, Newtons, ...)
If the header above contains a line with 'inDegrees', this indicates whether rotational values are in degrees (yes) or radians (no).

endheader
time	pelvis_tilt	pelvis_list	pelvis_rotation	pelvis_tx	pelvis_ty	pelvis_tz	hip_flexion_r	hip_adduction_r	hip_rotation_r	knee_angle_r	knee_angle_r_beta	ankle_angle_r	hip_flexion_l	hip_adduction_l	hip_rotation_l	knee_angle_l	knee_angle_l_beta	ankle_angle_l
     17.17333333	     -2.90361162	      5.98098091	      3.38199946	      2.29004780	      0.91518950	      0.99686855	    -16.72811342	    -10.02991567	    -12.32330025	     85.40797280	      1.49065033	     -5.05123973	     25.89753864	     10.52191744	     -4.68158239	     19.03387394	      0.33220377	     -1.12378320
     17.18000000	     -2.90323689	      6.34907391	      3.69115113	      2.28948791	      0.90957461	      0.99702178	    -15.21039107	    -10.15524402	    -11.55091998	     89.79090360	      1.56714691	     -4.65036123	     26.24230751	     10.87839036	     -4.90007759	     22.05367955	      0.38490932	      0.23651156
     17.18666667	     -3.03796296	      6.63745263	      4.05305474	      2.28875525	      0.90360964	      0.99715808	    -13.43833769	    -10.23477742	    -10.86420677	     94.08042959	      1.64201326	     -4.28037035	     26.75346733	     11.18492489	     -5.03934519	     25.34077637	      0.44227998	      1.92830323
     17.19333333	     -3.26778477	      6.86650409	      4.43432861	      2.28784443	      0.89745823	      0.99731210	    -11.44942722	    -10.29437185	    -10.20743790	     98.25406974	      1.71485702	     -3.93492727	     27.30575020	     11.45489006	     -5.08529390	     28.69047350	      0.50074323	      3.90287972
     17.20000000	     -3.54281354	      7.01349335	      4.84030983	      2.28667052	      0.89132364	      0.99745348	     -9.26636019	    -10.32078711	     -9.59398281	    102.28647562	      1.78523578	     -3.59458265	     27.81586430	     11.69266103	     -4.98720910	     31.99579711	      0.55843201	      6.14375081
     17.20666667	     -3.86055560	      7.12020196	      5.22952605	      2.28523543	      0.88538510	      0.99759541	     -6.86681645	    -10.37888914	     -8.97007536	    106.16352719	      1.85290310	     -3.29480777	     28.22073089	     11.92788675	     -4.78081150	     35.10251579	      0.61265448	      8.55201206
     17.21333333	     -4.27627724	      7.14017568	      5.62444217	      2.28350580	      0.87973885	      0.99772580	     -4.16177295	    -10.42505979	     -8.33572303	    109.86506398	      1.91750710	     -3.02673641	     28.55994118	     12.11964253	     -4.44946358	     37.94348780	      0.66223879	     11.07997333
     17.22000000	     -4.62150617	      7.17577250	      5.96891860	      2.28152044	      0.87476505	      0.99787457	     -1.34694382	    -10.52367942	     -7.63910000	    113.31655302	      1.97774695	     -2.71888525	     28.58885147	     12.35335146	     -4.00976898	     40.37295443	      0.70464098	     13.52914708
     17.22666667	     -4.99028025	      7.14352026	      6.30040665	      2.27933462	      0.87043690	      0.99804121	      1.69499201	    -10.61055373	     -6.92304436	    116.48370323	      2.03302415	     -2.48694264	     28.41662564	     12.52845022	     -3.46975444	     42.40197275	      0.74005403	     15.92560287
     17.23333333	     -5.06256076	      7.03356751	      6.71369506	      2.27740050	      0.86737783	      0.99817364	      4.44965929	    -10.59256888	     -6.38158963	    119.10001600	      2.07868742	     -2.26370911	     27.60452698	     12.64082392	     -2.70646527	     43.93709624	      0.76684699	     18.20196434
     17.24000000	     -3.36088393	      6.63659493	      7.96540966	      2.27826231	      0.86826675	      0.99772092	      4.33786367	     -9.99967013	     -7.37544239	    119.84442522	      2.09167981	     -2.22739167	     24.12375370	     12.55564681	     -0.81496314	     44.69168491	      0.78001705	     20.38597658
     17.24666667	     -0.81454036	      6.47580719	      9.01523775	      2.27964075	      0.87132255	      0.99746959	      3.23226741	     -9.58024615	     -8.38644521	    119.91876834	      2.09297734	     -2.18239159	     19.22141777	     12.30234990	      1.00098884	     44.55284323	      0.77759381	     22.24089485
     17.25333333	      1.02041038	      5.84822646	      9.94299615	      2.28016966	      0.87417827	      0.99721081	      3.36204377	     -8.72771708	     -9.18879022	    119.94130683	      2.09337071	     -2.10889216	     15.16630243	     11.41060621	      2.76626023	     44.24962209	      0.77230160	     23.75078820
     17.26000000	      2.69550208	      5.51841969	     10.23781461	      2.28025958	      0.87754760	      0.99736377	      3.96766552	     -8.34624494	     -9.30525425	    119.95078791	      2.09353619	     -1.96274036	     11.00682726	     10.55160660	      3.82823493	     43.17645091	      0.75357123	     24.80604918
     17.26666667	      3.55597008	      4.82600754	     10.36004318	      2.27964430	      0.88044281	      0.99751108	      5.82283641	     -7.72957555	     -9.19381527	    119.95496194	      2.09360904	     -1.83314757	      7.83932012	      9.36933479	      4.65372601	     41.99243477	      0.73290625	     25.43307769
     17.27333333	      3.63742962	      4.09339930	     10.27644892	      2.27851394	      0.88289410	      0.99763631	      8.74632369	     -7.26701015	     -8.82802814	    119.95583536	      2.09362428	     -1.63974384	      5.50179960	      8.26012730	      5.19263311	     40.58187919	      0.70828741	     25.61667671
     17.28000000	      3.34208953	      3.30123902	     10.14972102	      2.27657763	      0.88488527	      0.99772564	     12.20903860	     -6.84231099	     -8.47256486	    119.95237973	      2.09356397	     -1.35266178	      3.68595636	      7.18334869	      5.67879747	     39.22677477	      0.68463637	     25.57954934
     17.28666667	      2.17589170	      2.93624975	      9.21827037	      2.27496739	      0.88654387	      0.99844717	     16.82342590	     -6.86470031	     -7.15802660	    119.94704048	      2.09347078	     -1.26883299	      2.48766722	      6.65939849	      5.19508897	     37.24540050	      0.65005487	     24.60093228
     17.29333333	      0.27040088	      2.58681123	      8.33665272	      2.27279470	      0.88715497	      0.99916675	     22.34390191	     -6.84147076	     -5.84739080	    119.93393145	      2.09324199	     -1.20371009	      2.28080905	      6.31539184	      4.72214206	     35.56930937	      0.62080156	     23.43886608
     17.30000000	     -1.73044148	      2.86420733	      7.21084051	      2.27054135	      0.88748467	      1.00013904	     27.94605657	     -7.26776825	     -4.08248039	    119.90005675	      2.09265076	     -1.12021812	      2.00545029	      6.64980244	      3.98865624	     33.61435030	      0.58668109	     21.71508398
     17.30666667	     -4.48884400	      3.36450715	      6.12907198	      2.26836962	      0.88675332	      1.00121338	     34.39542143	     -7.70840692	     -2.16921607	    119.75597509	      2.09013606	     -1.10583950	      2.67557877	      7.26610220	      3.10633008	     31.87713018	      0.55636088	     19.66721754
     17.31333333	     -5.68246839	      3.58625518	      5.46480266	      2.26824802	      0.88916120	      1.00175710	     38.18397455	     -7.78998411	     -1.24680859	    118.38511324	      2.06621001	     -1.04208098	      1.22459436	      7.39828974	      2.77900107	     29.33284334	      0.51195470	     16.93644772
     17.32000000	     -6.05238206	      3.03236298	      5.18948865	      2.27012779	      0.89414833	      1.00172959	     40.11349985	     -7.28771246	     -1.55942646	    115.77824361	      2.02071155	     -0.93198629	     -1.34086249	      6.59459113	      2.77458550	     26.27685497	      0.45861764	     13.59884281
     17.32666667	     -6.02163798	      2.24511933	      5.06571496	      2.27259359	      0.90004224	      1.00152979	     41.17999825	     -6.69272526	     -2.34191478	    112.70202179	      1.96702135	     -0.75067796	     -4.35353362	      5.50687538	      2.87525572	     23.05239717	      0.40234023	      9.87661385
     17.33333333	     -6.22239216	      1.46349181	      4.93770078	      2.27525378	      0.90573378	      1.00137005	     42.31607380	     -6.12421911	     -3.14581515	    109.41769723	      1.90969908	     -0.55199036	     -6.99777444	      4.44604761	      2.79813464	     19.92147448	      0.34769532	      5.80524215
     17.34000000	     -6.61487030	      0.71218314	      4.77302083	      2.27809762	      0.91118072	      1.00127125	     43.48893391	     -5.59202065	     -3.94468176	    105.95040130	      1.84918335	     -0.34720610	     -9.30325876	      3.45132979	      2.53591219	     16.94900459	      0.29581594	      1.60020779
     17.34666667	     -6.87441353	     -0.11282307	      4.72401783	      2.28102257	      0.91675422	      1.00111011	     44.26678747	     -5.08771952	     -4.96676001	    102.22463451	      1.78415645	     -0.08913537	    -11.56155222	      2.36043923	      2.22589409	     14.25344676	      0.24876958	     -2.50207695
     17.35333333	     -7.32558941	     -0.80589422	      4.59816711	      2.28394142	      0.92187844	      1.00110645	     45.14337242	     -4.65071042	     -5.85137294	     98.38049936	      1.71706363	      0.14645745	    -13.39345481	      1.45314169	      1.67873831	     11.96699901	      0.20886353	     -6.40472545
     17.36000000	     -7.82956461	     -1.42858577	      4.47874544	      2.28689317	      0.92670105	      1.00113629	     45.90574138	     -4.30646413	     -6.76545484	     94.37532565	      1.64716017	      0.38121935	    -14.94458738	      0.64148594	      1.01680101	     10.14304126	      0.17702947	     -9.84207800
     17.36666667	     -8.27823486	     -1.92507266	      4.31934363	      2.28976213	      0.93127558	      1.00129391	     46.47249581	     -4.02124582	     -7.61231506	     90.23444530	      1.57488817	      0.61804934	    -16.31541898	     -0.01722002	      0.20130251	      8.85384900	      0.15452882	    -12.73929310
     17.37333333	     -8.74876083	     -2.25723627	      4.11719064	      2.29250997	      0.93545777	      1.00158103	     46.94599800	     -3.83892578	     -8.37515297	     85.97729964	      1.50058696	      0.84761969	    -17.40275303	     -0.48364428	     -0.74917136	      8.17621678	      0.14270190	    -15.01306322
     17.38000000	     -9.50843279	     -2.38523562	      3.82353162	      2.29506449	      0.93885089	      1.00211719	     47.66703433	     -3.71396292	     -8.93336031	     81.64581950	      1.42498837	      1.01108246	    -17.87942220	     -0.70745172	     -1.86398694	      8.24581736	      0.14391666	    -16.55006525
     17.38666667	     -9.71372595	     -2.42165517	      3.45790594	      2.29749009	      0.94236232	      1.00284579	     47.64806844	     -3.55057249	     -9.48919277	     77.15984955	      1.34669343	      1.24634301	    -18.79230221	     -0.85628263	     -3.13502440	      8.77839630	      0.15321192	    -17.52910605
     17.39333333	    -10.09391410	     -2.26118003	      3.01152749	      2.29963614	      0.94514733	      1.00386969	     47.76119372	     -3.42293192	     -9.86886603	     72.59419247	      1.26700768	      1.43522185	    -19.27960108	     -0.80655725	     -4.47415925	      9.93645459	      0.17342385	    -17.96319504
